<svg width="37" height="37" viewBox="0 0 37 37" fill="none" xmlns="http://www.w3.org/2000/svg">
<mask id="mask0" mask-type="alpha" maskUnits="userSpaceOnUse" x="0" y="0" width="37" height="37">
<path d="M0 0H37V37H0V0Z" fill="#FFFCEE"/>
</mask>
<g mask="url(#mask0)">
<path d="M18.419 0.925049C8.249 0.925049 0 9.20505 0 19.42C0 27.59 5.278 34.521 12.6 36.9691C13.521 37.139 13.858 36.5681 13.858 36.078C13.858 35.6381 13.841 34.475 13.832 32.932C8.709 34.049 7.626 30.452 7.626 30.452C6.791 28.315 5.582 27.746 5.582 27.746C3.908 26.6 5.706 26.623 5.706 26.623C7.556 26.754 8.526 28.529 8.526 28.529C10.171 31.355 12.84 30.5391 13.89 30.0651C14.055 28.8701 14.532 28.055 15.06 27.592C10.97 27.125 6.669 25.538 6.669 18.452C6.669 16.433 7.387 14.782 8.566 13.488C8.375 13.021 7.744 11.14 8.746 8.59505C8.746 8.59505 10.293 8.09805 13.811 10.49C15.281 10.08 16.855 9.87505 18.424 9.86905C19.987 9.87805 21.564 10.08 23.036 10.493C26.552 8.10005 28.097 8.59805 28.097 8.59805C29.101 11.144 28.47 13.023 28.281 13.491C29.463 14.785 30.174 16.436 30.174 18.455C30.174 25.559 25.868 27.123 21.764 27.581C22.426 28.151 23.015 29.281 23.015 31.005C23.015 33.4781 22.992 35.472 22.992 36.078C22.992 36.573 23.324 37.148 24.259 36.966C27.9299 35.7279 31.1194 33.3682 33.3773 30.22C35.6351 27.0719 36.8474 23.2942 36.843 19.42C36.843 9.20505 28.594 0.925049 18.419 0.925049Z" fill="#FFFCEE"/>
</g>
</svg>
