<svg width="24" height="15" viewBox="0 0 24 15" fill="none" xmlns="http://www.w3.org/2000/svg">
<path opacity="1" d="M0.0900232 7.50149C0.0309453 7.39267 0 7.27081 0 7.14699C0 7.02317 0.0309453 6.90131 0.0900232 6.79249C1.20445 4.73783 2.85295 3.02218 4.86149 1.82663C6.87003 0.631082 9.16409 0 11.5015 0C13.839 0 16.133 0.631082 18.1416 1.82663C20.1501 3.02218 21.7986 4.73783 22.913 6.79249C22.9721 6.90131 23.003 7.02317 23.003 7.14699C23.003 7.27081 22.9721 7.39267 22.913 7.50149C21.7986 9.55614 20.1501 11.2718 18.1416 12.4673C16.133 13.6629 13.839 14.294 11.5015 14.294C9.16409 14.294 6.87003 13.6629 4.86149 12.4673C2.85295 11.2718 1.20445 9.55614 0.0900232 7.50149ZM11.5 12.6295C12.5843 12.6299 13.6444 12.3087 14.5462 11.7066C15.448 11.1045 16.1509 10.2484 16.5662 9.24675C16.9814 8.24508 17.0902 7.14277 16.8789 6.07923C16.6676 5.0157 16.1457 4.03871 15.3791 3.27184C14.6125 2.50497 13.6357 1.98266 12.5722 1.77097C11.5088 1.55929 10.4064 1.66774 9.40461 2.0826C8.40279 2.49746 7.5465 3.20009 6.94405 4.10165C6.34159 5.0032 6.02002 6.06317 6.02002 7.14749C6.02002 8.60106 6.59731 9.99513 7.62496 11.0231C8.6526 12.0512 10.0465 12.629 11.5 12.6295Z" fill="#FFFCEE"/>
<path opacity="1" d="M11.503 4.35352C11.7285 4.35348 11.9531 4.38069 12.172 4.43452C11.932 4.71143 11.8058 5.06898 11.8189 5.4352C11.8319 5.80141 11.9832 6.14908 12.2423 6.4082C12.5015 6.66732 12.8491 6.81863 13.2153 6.83168C13.5816 6.84473 13.9391 6.71854 14.216 6.47852C14.3552 7.04299 14.3149 7.63685 14.1006 8.17731C13.8863 8.71777 13.5088 9.17791 13.0206 9.49364C12.5324 9.80936 11.9579 9.96493 11.3771 9.93866C10.7963 9.91239 10.2381 9.70561 9.78044 9.34711C9.32274 8.98861 8.98826 8.49626 8.82364 7.93866C8.65901 7.38106 8.67243 6.786 8.86203 6.23639C9.05162 5.68678 9.40795 5.21 9.88134 4.8725C10.3547 4.53499 10.9216 4.35357 11.503 4.35352Z" fill="#FFFCEE"/>
</svg>
