<svg xmlns="http://www.w3.org/2000/svg" width="152.398" height="155.035" viewBox="0 0 152.398 155.035">
    <defs>
        <style>
            .cls-1,.cls-7{fill:#3a4042}.cls-1{stroke:#fffcee;stroke-width:8px}.cls-2{fill:#fffcee}.cls-3{fill:#eae6da}.cls-4{fill:#f25a70}.cls-5{fill:#828282}.cls-6{fill:#f4f1e4}
        </style>
    </defs>
    <g id="icon-collabcode" transform="translate(4 4)">
        <g id="Group_6" data-name="Group 6">
            <circle id="Ellipse_1" cx="72.199" cy="72.199" r="72.199" class="cls-1" data-name="Ellipse 1"/>
            <g id="Group_1" data-name="Group 1" transform="translate(16.389 34.988)">
                <path id="Path_1" d="M157.567 105.674c-19.735 0-28.523 22.948-28.794 23.662-.634 1.956-4.984 15.836-4.984 26.934 0 20.976-17.4 33.113-38.5 33.113-21.281 0-38.522-12.32-38.522-33.592a190.708 190.708 0 0 1 1.426-22.191c-3.394-3.839-3.892-9.99-3.892-9.99a6.793 6.793 0 0 0-2.738 1.369.235.235 0 0 1-.385-.2c.387-3.282 3.711-10.248 10.3-11.251A59.576 59.576 0 0 1 55.3 103a39.621 39.621 0 0 1 50.5-17.7c13.315 0 19.745-7.067 19.745-7.067 2.989 0 6.6 7.822 4.923 10.736a.085.085 0 0 0 .119.11c5.546-3.534 8.673-12.251 8.673-12.251 6.334 3.167 9.659 17.4 6.256 20.8 10.943 1.685 13.884 8.046 12.051 8.046z" class="cls-2" data-name="Path 1" transform="translate(-41.178 -76.829)"/>
            </g>
            <g id="Group_2" data-name="Group 2" transform="translate(21.946 103.609)">
                <path id="Path_2" d="M89.815 257.049c-20.843-.36-37.57-12.616-37.57-33.572a91.181 91.181 0 0 1 .317-10.086c21.791-3.425 11.079 27.809 37.253 43.658z" class="cls-3" data-name="Path 2" transform="translate(-52.215 -213.131)"/>
            </g>
            <g id="Group_3" data-name="Group 3" transform="translate(81.026 35.725)">
                <path id="Path_3" d="M221.826 105.843c0 .349-.175.558-.506.558-.314 0-.619.009-.933.018-17.512.585-25.277 17.555-26.595 20.784a2.127 2.127 0 0 1-.026.05c-.715 1.475-1.117 2.5-1.221 2.757a34.528 34.528 0 0 0 .995-7.609 39.581 39.581 0 0 0-23.973-36.378c.345 0 .686-.006 1.026-.016q.314 0 .628-.026c.218 0 .436-.018.654-.026.332-.026.645-.05.96-.079.192-.018.384-.035.576-.061a31.025 31.025 0 0 0 3.638-.594l.594-.149q.314-.065.628-.157c.236-.061.471-.122.7-.192.367-.113.733-.227 1.082-.34.279-.1.558-.192.82-.3s.541-.192.794-.306c.262-.1.506-.2.75-.314a25.675 25.675 0 0 0 2.905-1.483 21.609 21.609 0 0 0 1.972-1.3 19.114 19.114 0 0 0 1.483-1.213l.018-.018a.885.885 0 0 1 1.143.009c1.649 1.431 5.915 5.671 4.319 10.174a2.127 2.127 0 0 1-.026.05.076.076 0 0 0 .026.1.081.081 0 0 0 .1.018c.166-.1.323-.209.489-.332a12.413 12.413 0 0 0 1.073-.846c.131-.113.262-.236.393-.358.209-.192.419-.4.62-.611.1-.1.192-.192.279-.3l.05-.05c.061-.061.113-.122.166-.183s.122-.131.175-.192c.018-.018.026-.035.035-.044q.144-.157.262-.314c.05-.061.1-.113.149-.175.157-.192.314-.393.463-.585.087-.113.175-.227.252-.34a.2.2 0 0 0 .05-.079s.018-.009.018-.018a4.091 4.091 0 0 0 .244-.34c.1-.131.192-.262.27-.393a.673.673 0 0 0 .1-.139 1.158 1.158 0 0 0 .087-.131 21.295 21.295 0 0 0 .576-.899c.009-.009.018-.018.018-.026.131-.2.244-.4.358-.6a.627.627 0 0 0 .061-.1c.175-.288.332-.576.48-.856.061-.1.113-.2.166-.3.1-.192.2-.393.3-.576.079-.149.148-.3.227-.436a.032.032 0 0 1 .009-.026.318.318 0 0 1 .044-.1c.1-.183.183-.367.262-.541.061-.131.122-.262.175-.384.035-.07.061-.131.087-.192l.05-.1c.061-.149.122-.279.175-.41a.814.814 0 0 1 .061-.122.859.859 0 0 1 1.387-.1 40.661 40.661 0 0 1 5.366 7.739c.044.1.07.209.113.314 1.5 4.607 1.684 9.519 0 11.517-.05.061-.1.122-.166.183.681.1 1.335.227 1.954.367.262.061.515.122.768.183.131.035.262.07.384.1.244.061.48.131.7.2a17.987 17.987 0 0 1 6.448 3.307c.122.1.236.209.349.314a.089.089 0 0 1 .044.035c.113.1.218.209.323.314s.209.209.306.323.192.209.27.314a6.123 6.123 0 0 1 .393.515 3.5 3.5 0 0 1 .585 1.318.952.952 0 0 1 .021.198z" class="cls-4" data-name="Path 3" transform="translate(-169.566 -78.292)"/>
            </g>
            <path id="Path_4" d="M53.1 149.489c-7.662 0-11.512 7.829-11.922 11.372a.234.234 0 0 0 .385.2 6.9 6.9 0 0 1 2.744-1.375S45.365 172.7 54.86 172.7c11.607 0 10.552-23.211-1.76-23.211z" class="cls-5" data-name="Path 4" transform="translate(-24.788 -77.921)"/>
            <g id="Group_4" data-name="Group 4" transform="translate(59.617 110.611)">
                <path id="Path_5" d="M134.949 247.178c5.727 1 16.538 1.846 19.528-1.144 1.935-1.935-4.417-10.564-10.377-16.345a10.2 10.2 0 0 0-17.059 7.553c.001 5.029 3.121 9.1 7.908 9.936z" class="cls-6" data-name="Path 5" transform="translate(-127.041 -227.04)"/>
            </g>
            <path id="Path_6" d="M147.322 92.567c1.324-5.29-1.381-12.172-7.915-19.694a4.357 4.357 0 0 0-7.295 1.138 33.416 33.416 0 0 1-2.6 4.863 19.921 19.921 0 0 0-4.5-5.482 4.356 4.356 0 0 0-5.79.069c-1.417 1.292-6.7 5.437-16.177 5.632a43.116 43.116 0 0 0-54.253 19.552 63.6 63.6 0 0 0-3.583 9.283c-6.6 2.236-10.4 9.193-10.934 13.73a3.725 3.725 0 0 0 3.7 4.159q.151 0 .3-.013a20.707 20.707 0 0 0 2.825 6.088 196.419 196.419 0 0 0-1.271 21.191c0 11.208 4.341 20.707 12.552 27.468 7.531 6.2 17.993 9.616 29.46 9.616 24.726 0 41.995-15.053 41.995-36.6 0-10.532 4.179-23.893 4.783-25.776.617-1.595 8.6-21.334 25.5-21.334a3.974 3.974 0 0 0 3.984-3.709c.277-3.512-3.703-7.91-10.781-10.181zm-39.127 84.4c-6.692 5.415-16.05 8.4-26.35 8.4-25.7 0-37.2-16.211-37.2-32.282 0-.108.016-10.039 1.117-19.6a9.693 9.693 0 0 0 5.662 1.741 8.4 8.4 0 0 0 7.189-3.82 14.4 14.4 0 0 0 2.241-8.075c0-6.718-3.881-13.85-11.07-13.93a58.557 58.557 0 0 1 3.244-8.485 38.265 38.265 0 0 1 72.008 18.054c0 4.078-1.133 8.24-2.444 13.062-1.658 6.1-3.538 13.006-3.538 21.534-.006 9.564-3.754 17.657-10.854 23.403zM54.93 123.3c-7.052-6.17-13.456-4.046-14.459-3.656a7.061 7.061 0 0 0-.8.247c1.272-3.275 4.441-7.887 9.986-7.887 5.627 0 8.571 5.694 8.571 11.319a11.784 11.784 0 0 1-1.783 6.6 5.808 5.808 0 0 1-5.03 2.684c-3.358 0-5.921-1.91-7.617-5.676a21.03 21.03 0 0 1-1.492-5.1c1.82-.415 6.1-.746 10.9 3.448a1.309 1.309 0 1 0 1.724-1.979zm66.652-47.261a.856.856 0 0 1 .578-.225.88.88 0 0 1 .576.216c1.457 1.259 4.941 4.7 4.653 8.586a7.96 7.96 0 0 1-4.919 1.909 1.309 1.309 0 1 0 0 2.618c7.552 0 12.356-9.314 13.985-13.064 2.749 2.255 4.768 7.062 5.432 11.149.446 2.75.286 5.118-.393 6.314a36.057 36.057 0 0 0-4.954-.333 1.309 1.309 0 1 0 0 2.618c10.116 0 14.086 3.74 15.532 5.9-13.117.94-20.828 10.8-24.428 17.036a40.829 40.829 0 0 0-22.468-36.291c9.365-.733 14.776-4.944 16.407-6.431z" class="cls-7" data-name="Path 6" transform="translate(-21.348 -39.131)"/>
            <circle id="Ellipse_2" cx="6.489" cy="6.489" r="6.489" class="cls-7" data-name="Ellipse 2" transform="translate(46.639 79.979)"/>
            <g id="Group_5" data-name="Group 5" transform="translate(58.308 109.303)">
                <path id="Path_7" d="M144.063 248.137a68.073 68.073 0 0 1-10.631-.961c-5.378-.94-8.991-5.452-8.991-11.227a11.522 11.522 0 0 1 11.508-11.508 11.355 11.355 0 0 1 7.794 3.042c4.263 4.135 11.076 12.22 11.1 16.211a2.658 2.658 0 0 1-.738 1.974c-1.912 1.919-5.995 2.469-10.042 2.469zm-10.18-3.538c7.364 1.285 16.253 1.344 18.376-.78.438-1.251-3.776-8.089-10.362-14.481a8.892 8.892 0 0 0-14.837 6.611c0 4.459 2.742 7.934 6.823 8.648z" class="cls-7" data-name="Path 7" transform="translate(-124.441 -224.441)"/>
            </g>
        </g>
    </g>
</svg>
