<svg width="37" height="37" viewBox="0 0 37 37" fill="none" xmlns="http://www.w3.org/2000/svg">
<mask id="mask0" mask-type="alpha" maskUnits="userSpaceOnUse" x="0" y="0" width="37" height="37">
<path d="M0 0H37V37H0V0Z" fill="#FFFCEE"/>
</mask>
<g mask="url(#mask0)">
<path fill-rule="evenodd" clip-rule="evenodd" d="M18.5 -0.00695801C8.3 -0.00695801 0 8.08604 0 18.035C0 27.983 8.3 36.077 18.5 36.077C28.7 36.077 37 27.983 37 18.035C37 8.08604 28.702 -0.00695801 18.5 -0.00695801ZM20.394 7.99904L22.802 8.00304C23.01 8.00304 23.18 8.18704 23.18 8.41304V11.478C23.18 11.704 23.01 11.888 22.801 11.888H21.18C20.062 11.888 19.857 12.359 19.857 13.288V15.218H22.689C22.789 15.218 22.886 15.262 22.957 15.338C23.027 15.416 23.067 15.52 23.067 15.628V18.929C23.067 19.155 22.897 19.339 22.688 19.339H19.858V27.668C19.858 27.894 19.688 28.078 19.478 28.078H16.32C16.11 28.078 15.941 27.894 15.941 27.668V19.338H13.521C13.311 19.338 13.141 19.155 13.141 18.929V15.629C13.141 15.402 13.311 15.219 13.521 15.219H15.941V12.94C15.94 9.94004 17.69 8.00004 20.394 8.00004V7.99904Z" fill="#FFFCEE"/>
</g>
</svg>
