<svg width="37" height="37" viewBox="0 0 37 37" fill="none" xmlns="http://www.w3.org/2000/svg">
<mask id="mask0" mask-type="alpha" maskUnits="userSpaceOnUse" x="0" y="0" width="37" height="37">
<path d="M0 0H37V37H0V0Z" fill="#FFFCEE"/>
</mask>
<g mask="url(#mask0)">
<path fill-rule="evenodd" clip-rule="evenodd" d="M0 18.5C0 8.284 8.284 0 18.5 0C28.716 0 37 8.284 37 18.5C37 28.716 28.716 37 18.5 37C8.284 37 0 28.716 0 18.5ZM28.565 25.458C28.828 24.783 29.008 24.011 29.059 22.88C29.111 21.747 29.123 21.385 29.123 18.5C29.123 15.615 29.111 15.253 29.059 14.12C29.008 12.99 28.829 12.217 28.565 11.542C28.2985 10.833 27.8804 10.1907 27.34 9.66C26.8093 9.11931 26.167 8.70091 25.458 8.434C24.783 8.172 24.011 7.993 22.88 7.941C21.747 7.889 21.385 7.877 18.5 7.877C15.615 7.877 15.253 7.889 14.12 7.941C12.99 7.993 12.217 8.172 11.542 8.435C10.833 8.70151 10.1907 9.11957 9.66 9.66C9.11921 10.1906 8.7008 10.8329 8.434 11.542C8.172 12.217 7.992 12.989 7.941 14.12C7.889 15.253 7.877 15.615 7.877 18.5C7.877 21.385 7.889 21.747 7.941 22.88C7.993 24.01 8.173 24.783 8.435 25.458C8.70156 26.167 9.11962 26.8092 9.66 27.34C10.19 27.88 10.833 28.299 11.542 28.565C12.217 28.828 12.99 29.007 14.12 29.059C15.253 29.111 15.615 29.123 18.5 29.123C21.385 29.123 21.747 29.111 22.88 29.059C24.01 29.007 24.783 28.828 25.458 28.565C26.1638 28.2921 26.8047 27.8748 27.3397 27.3397C27.8748 26.8047 28.2921 26.1638 28.565 25.458ZM26.781 12.235C26.6108 11.7738 26.3395 11.3566 25.987 11.014C25.6443 10.6609 25.2267 10.3893 24.765 10.219C24.391 10.073 23.828 9.9 22.793 9.853C21.673 9.803 21.336 9.791 18.5 9.791C15.663 9.791 15.327 9.801 14.207 9.853C13.171 9.9 12.609 10.073 12.235 10.219C11.773 10.389 11.355 10.661 11.014 11.014C10.661 11.356 10.389 11.774 10.219 12.234C10.073 12.609 9.9 13.172 9.853 14.207C9.802 15.327 9.791 15.664 9.791 18.5C9.791 21.337 9.801 21.673 9.853 22.793C9.9 23.829 10.073 24.391 10.219 24.765C10.389 25.227 10.66 25.645 11.013 25.987C11.356 26.34 11.773 26.611 12.235 26.782C12.609 26.927 13.172 27.1 14.207 27.147C15.327 27.198 15.663 27.209 18.5 27.209C21.337 27.209 21.673 27.199 22.793 27.147C23.828 27.1 24.391 26.927 24.765 26.782C25.2232 26.6052 25.6393 26.3343 25.9865 25.9869C26.3338 25.6395 26.6044 25.2233 26.781 24.765C26.927 24.391 27.1 23.829 27.147 22.793C27.198 21.673 27.209 21.337 27.209 18.5C27.209 15.664 27.199 15.328 27.147 14.207C27.1 13.172 26.927 12.609 26.781 12.235ZM18.5 23.955C17.7836 23.955 17.0743 23.8139 16.4125 23.5398C15.7506 23.2656 15.1493 22.8638 14.6427 22.3573C14.1362 21.8507 13.7344 21.2494 13.4602 20.5875C13.1861 19.9257 13.045 19.2164 13.045 18.5C13.045 17.7836 13.1861 17.0743 13.4602 16.4125C13.7344 15.7506 14.1362 15.1493 14.6427 14.6427C15.1493 14.1362 15.7506 13.7344 16.4125 13.4602C17.0743 13.1861 17.7836 13.045 18.5 13.045C19.9468 13.045 21.3343 13.6197 22.3573 14.6427C23.3803 15.6657 23.955 17.0532 23.955 18.5C23.955 19.9468 23.3803 21.3343 22.3573 22.3573C21.3343 23.3803 19.9468 23.955 18.5 23.955ZM24.17 14.105C24.0026 14.105 23.8368 14.072 23.6821 14.0079C23.5274 13.9439 23.3868 13.85 23.2684 13.7316C23.15 13.6132 23.0561 13.4726 22.9921 13.3179C22.928 13.1632 22.895 12.9974 22.895 12.83C22.895 12.6626 22.928 12.4968 22.9921 12.3421C23.0561 12.1874 23.15 12.0468 23.2684 11.9284C23.3868 11.81 23.5274 11.7161 23.6821 11.6521C23.8368 11.588 24.0026 11.555 24.17 11.555C24.5082 11.555 24.8325 11.6893 25.0716 11.9284C25.3107 12.1675 25.445 12.4918 25.445 12.83C25.445 13.1682 25.3107 13.4925 25.0716 13.7316C24.8325 13.9707 24.5082 14.105 24.17 14.105ZM22.042 18.5C22.042 19.4391 21.6689 20.3398 21.0049 21.0039C20.3408 21.6679 19.4401 22.041 18.501 22.041C17.5619 22.041 16.6612 21.6679 15.9971 21.0039C15.3331 20.3398 14.96 19.4391 14.96 18.5C14.96 17.5609 15.3331 16.6602 15.9971 15.9961C16.6612 15.3321 17.5619 14.959 18.501 14.959C19.4401 14.959 20.3408 15.3321 21.0049 15.9961C21.6689 16.6602 22.042 17.5609 22.042 18.5Z" fill="#FFFCEE"/>
</g>
</svg>
