<svg width="150" height="155" viewBox="0 0 150 155" fill="none" xmlns="http://www.w3.org/2000/svg">
<path d="M88.4579 146.253C120.497 146.253 146.47 120.278 146.47 88.235C146.47 56.1926 120.497 30.217 88.4579 30.217C56.4189 30.217 30.4462 56.1926 30.4462 88.235C30.4462 120.278 56.4189 146.253 88.4579 146.253Z" fill="#3A4042"/>
<path d="M12.6412 80.8501C6.05481 79.2404 2.19923 73.1095 3.85113 66.3631C4.84473 62.3024 7.73481 59.2143 11.3774 58.0376L12.8547 63.0752C10.8862 63.6448 9.39362 65.3136 8.83838 67.5846C7.86795 71.5486 9.8956 74.7566 13.8927 75.735C17.8893 76.712 21.1689 74.803 22.1379 70.839C22.6941 68.5685 22.1482 66.367 20.6566 64.9862L24.2932 61.1982C26.99 63.8919 28.1276 67.9663 27.1261 72.0605C25.4757 78.8069 19.2276 82.4627 12.6412 80.8501Z" fill="#3A4042"/>
<path d="M22.3568 58.1189C18.1689 55.5693 16.9544 50.2837 19.4707 46.151C21.986 42.0183 27.2385 40.6686 31.427 43.2197C35.6154 45.7683 36.8294 51.054 34.3131 55.1876C31.7983 59.3188 26.5457 60.6686 22.3568 58.1189ZM28.8609 47.4367C26.8638 46.2205 24.6872 46.8232 23.5748 48.6503C22.4619 50.4775 22.9273 52.6863 24.9239 53.9029C26.9205 55.1181 29.0966 54.5164 30.209 52.6893C31.3214 50.8607 30.8555 48.6518 28.8609 47.4367Z" fill="#3A4042"/>
<path d="M22.4145 30.1263L25.7785 26.5105L43.369 42.8887L40.003 46.5031L22.4145 30.1263Z" fill="#3A4042"/>
<path d="M30.068 22.4582L33.853 19.2887L49.2768 37.7076L45.4908 40.8757L30.068 22.4582Z" fill="#3A4042"/>
<path d="M58.1503 13.3431L65.891 27.8647L61.5354 30.1879L60.8076 28.8224C60.4373 30.4375 59.3702 31.8646 57.4249 32.9023C53.6196 34.9311 48.7019 33.2637 46.3956 28.9343C44.0894 24.6078 45.4444 19.5944 49.2497 17.5656C51.195 16.5294 52.9741 16.4377 54.521 17.0305L53.7932 15.6649L58.1503 13.3431ZM57.6655 22.9272C56.5033 20.7479 54.3228 20.1576 52.3188 21.2248C50.3158 22.2944 49.5905 24.4328 50.7517 26.612C51.914 28.7903 54.093 29.3801 56.0975 28.3129C58.1 27.2448 58.8253 25.1054 57.6655 22.9272Z" fill="#3A4042"/>
<path d="M83.6891 15.6689C84.6329 20.4826 81.871 24.8801 77.6402 25.7081C75.475 26.1322 73.7471 25.6992 72.4424 24.6809L72.7382 26.1983L67.894 27.1472L63.4689 4.53441L68.3131 3.58557L69.8753 11.5663C70.7007 10.1288 72.1381 9.07688 74.3019 8.65276C78.5337 7.82475 82.7482 10.8577 83.6891 15.6689ZM78.8448 16.6177C78.3705 14.1954 76.4587 12.993 74.2309 13.429C72.003 13.8659 70.684 15.701 71.1583 18.1219C71.6327 20.5457 73.5445 21.7476 75.7738 21.3106C78.0016 20.8752 79.3182 19.0406 78.8448 16.6177Z" fill="#3A4042"/>
<path d="M88.9451 24.3209L86.843 22.08L87.2133 10.5001L89.454 8.39929L92.6113 8.4994L94.7134 10.7393L94.6232 13.536L93.3401 13.4961L93.4161 11.1274L91.9841 9.59865L90.0092 9.53553L88.4821 10.9691L88.1398 21.6938L89.5718 23.2211L91.5452 23.2843L93.0738 21.8521L93.1483 19.4825L94.4314 19.5249L94.3426 22.3201L92.1019 24.4225L88.9451 24.3209Z" fill="#3A4042"/>
<path d="M98.6528 25.1399L96.9275 22.5967L99.104 11.2176L101.645 9.49207L105.2 10.1721L106.926 12.7139L104.751 24.0945L102.208 25.82L98.6528 25.1399ZM99.4433 24.1526L101.836 24.6103L103.57 23.4336L105.586 12.8944L104.409 11.1599L102.017 10.7033L100.284 11.8799L98.2662 22.4182L99.4433 24.1526Z" fill="#3A4042"/>
<path d="M108.682 27.6009L107.394 24.8135L111.395 13.9399L114.185 12.6518L116.502 13.5044L117.731 16.166L120.788 7.8573L121.994 8.30065L114.15 29.6149L113.039 29.2061L113.705 27.2053L111 28.455L108.682 27.6009ZM109.624 26.7576L111.014 27.268L114.183 25.8033L117.207 17.5858L115.744 14.4178L114.354 13.9059L112.453 14.7842L108.746 24.8545L109.624 26.7576Z" fill="#3A4042"/>
<path d="M118.538 31.844L117.712 28.8831L123.408 18.7935L126.367 17.9695L129.405 19.6832L130.229 22.6431L127.27 27.8893L121.565 24.6695L119.042 29.1415L119.603 31.16L121.609 32.2927L123.627 31.731L124.597 30.0109L125.715 30.6412L124.535 32.7346L121.575 33.5587L118.538 31.844ZM122.114 23.696L126.702 26.2841L128.9 22.3842L128.339 20.3667L126.331 19.2339L124.315 19.7956L122.114 23.696Z" fill="#3A4042"/>
<path d="M137.134 81.5123C121.275 81.5123 114.215 99.9524 113.998 100.527C113.489 102.099 109.995 113.253 109.995 122.172C109.995 139.028 96.0157 148.781 79.0569 148.781C61.9575 148.781 48.1042 138.881 48.1042 121.786C48.1042 121.786 48.1042 112.342 49.2542 103.956C46.5268 100.871 46.1274 95.9278 46.1274 95.9278C46.1274 95.9278 44.9785 96.1522 43.9272 97.028C43.797 97.1365 43.5983 97.0319 43.618 96.8638C43.9286 94.2259 46.5998 88.6285 51.8903 87.8227C52.8159 84.0787 54.5683 80.1171 54.9678 79.367C60.3313 69.3688 70.8753 62.5745 83.0111 62.5745C87.4628 62.5745 91.6976 63.4859 95.5463 65.1409C106.245 65.1409 111.412 59.4617 111.412 59.4617C113.814 59.4617 116.709 65.7475 115.368 68.089C115.335 68.1467 115.408 68.2133 115.464 68.1778C119.921 65.3382 122.433 58.3324 122.433 58.3324C127.523 60.8776 130.194 72.3134 127.46 75.048C136.243 76.4007 138.606 81.5123 137.134 81.5123Z" fill="#FFFCEE"/>
<path d="M78.2896 148.767C61.5438 148.478 48.1023 138.629 48.1023 121.79C48.1023 121.79 47.9617 119.373 48.3567 113.684C65.8668 110.932 57.2602 136.029 78.2896 148.767Z" fill="#EAE6DA"/>
<path d="M137.541 81.0635C137.541 81.3441 137.401 81.5123 137.134 81.5123C136.882 81.5123 136.637 81.5192 136.384 81.5261C122.313 81.9961 116.074 95.6334 115.015 98.2274C115.009 98.2412 115.002 98.2555 114.994 98.2693C114.419 99.4543 114.097 100.274 114.012 100.485C114.489 98.3817 114.812 96.3622 114.812 94.3709C114.812 87.8153 112.828 81.7219 109.428 76.6596C106.027 71.6043 101.218 67.5727 95.5531 65.1395C95.8268 65.1395 96.1 65.1326 96.3737 65.1257C96.5418 65.1257 96.71 65.1188 96.8786 65.1044C97.0537 65.1044 97.2292 65.0906 97.4043 65.0832C97.6705 65.062 97.923 65.0413 98.1755 65.0201C98.3298 65.0063 98.4842 64.992 98.638 64.9708C99.6755 64.8658 100.65 64.6971 101.562 64.4939C101.723 64.452 101.884 64.417 102.038 64.3746C102.207 64.3396 102.375 64.2976 102.543 64.2483C102.733 64.199 102.922 64.1502 103.104 64.094C103.398 64.0027 103.693 63.9115 103.973 63.8203C104.198 63.7433 104.422 63.6659 104.632 63.5821C104.85 63.5051 105.067 63.4277 105.27 63.3365C105.481 63.2595 105.677 63.1752 105.873 63.084C106.259 62.9158 106.63 62.7403 106.981 62.5652C107.423 62.3408 107.829 62.1164 108.208 61.892C108.831 61.5276 109.358 61.17 109.792 60.8475C110.318 60.455 110.718 60.1181 110.984 59.873C110.991 59.8661 110.991 59.8661 110.998 59.8592C111.264 59.6348 111.65 59.6417 111.916 59.8661C113.241 61.0162 116.67 64.4234 115.387 68.0417C115.38 68.0555 115.373 68.0698 115.366 68.0836C115.352 68.1186 115.366 68.1467 115.387 68.1605C115.408 68.1817 115.443 68.1956 115.471 68.1743C115.604 68.09 115.73 68.0062 115.864 67.908C116.158 67.6975 116.452 67.4736 116.726 67.228C116.831 67.1368 116.937 67.0386 117.042 66.9405C117.21 66.7861 117.378 66.6179 117.539 66.4498C117.616 66.3728 117.694 66.2954 117.764 66.2116C117.777 66.1978 117.792 66.1835 117.805 66.1697C117.855 66.1204 117.897 66.0715 117.939 66.0222C117.988 65.966 118.037 65.9172 118.079 65.8679C118.092 65.8541 118.1 65.8397 118.107 65.8328C118.184 65.7485 118.254 65.6647 118.317 65.5803C118.359 65.531 118.401 65.4891 118.436 65.4403C118.562 65.2859 118.689 65.1247 118.808 64.9703C118.878 64.8791 118.948 64.7878 119.011 64.6966C119.032 64.6754 119.046 64.6547 119.053 64.6335C119.053 64.6335 119.067 64.6266 119.067 64.6197C119.137 64.5284 119.207 64.4372 119.263 64.346C119.34 64.2409 119.417 64.1354 119.481 64.0303C119.516 63.9953 119.537 63.9534 119.557 63.9179C119.586 63.8829 119.607 63.8479 119.627 63.8129C119.684 63.7359 119.733 63.6585 119.782 63.5816C119.887 63.4203 119.992 63.2522 120.091 63.0909C120.097 63.084 120.104 63.0771 120.104 63.0697C120.209 62.9084 120.301 62.7472 120.392 62.5859C120.413 62.5578 120.427 62.5297 120.441 62.5016C120.581 62.2703 120.707 62.039 120.827 61.8146C120.876 61.7303 120.918 61.6533 120.96 61.5764C121.044 61.422 121.121 61.2608 121.198 61.1138C121.261 60.9945 121.317 60.8756 121.38 60.7632C121.38 60.7563 121.38 60.7494 121.387 60.742C121.394 60.7139 121.409 60.6858 121.422 60.665C121.499 60.5176 121.57 60.3706 121.633 60.2306C121.682 60.1255 121.731 60.02 121.773 59.9219C121.801 59.8656 121.822 59.8168 121.843 59.7675C121.857 59.7394 121.871 59.7113 121.885 59.6832C121.934 59.5638 121.983 59.4588 122.025 59.3537C122.039 59.3187 122.053 59.2906 122.074 59.2556C122.32 58.863 122.874 58.8068 123.189 59.1713C124.234 60.3701 126.141 62.726 127.501 65.3905C127.536 65.4748 127.557 65.5586 127.592 65.643C128.798 69.3451 128.945 73.2923 127.592 74.8981C127.55 74.9474 127.508 74.9962 127.459 75.0455C128.006 75.1298 128.531 75.228 129.029 75.3399C129.24 75.3888 129.443 75.4381 129.646 75.4874C129.751 75.5155 129.857 75.5436 129.955 75.5717C130.151 75.621 130.341 75.6768 130.523 75.733C132.872 76.4412 134.569 77.4299 135.704 78.3901C135.802 78.4744 135.893 78.5583 135.985 78.6426C135.999 78.6495 136.013 78.6564 136.02 78.6707C136.111 78.755 136.195 78.8389 136.279 78.9232C136.363 79.0075 136.447 79.0914 136.525 79.1826C136.602 79.2669 136.679 79.3508 136.742 79.4351C136.861 79.5752 136.967 79.7157 137.058 79.8489C137.331 80.2626 137.485 80.6271 137.528 80.9077C137.534 80.9654 137.541 81.0142 137.541 81.0635Z" fill="#F25A70"/>
<path d="M53.195 87.7281C47.0386 87.7281 43.9449 94.0194 43.6155 96.8663C43.5958 97.037 43.7925 97.1396 43.9247 97.0301C44.9799 96.1552 46.1299 95.9249 46.1299 95.9249C46.1299 95.9249 46.9775 106.383 54.6083 106.383C63.9343 106.383 63.0867 87.7281 53.195 87.7281Z" fill="#828282"/>
<path d="M84.7024 135.285C89.3041 136.088 97.9906 136.768 100.393 134.366C101.947 132.811 96.8441 125.876 92.0556 121.231C90.8554 120.004 88.667 119.102 86.5447 119.102C82.017 119.102 78.3488 122.771 78.3488 127.299C78.3483 131.341 80.8557 134.613 84.7024 135.285Z" fill="#F4F1E4"/>
<path d="M131.666 73.1572C132.729 68.9057 130.556 63.3759 125.306 57.3308C124.64 56.5639 123.677 56.1245 122.664 56.1245C121.262 56.1245 119.998 56.957 119.444 58.2456C119.142 58.9483 118.41 60.5437 117.358 62.1534C116.294 60.1433 114.719 58.5893 113.746 57.748C113.107 57.1952 112.291 56.8909 111.449 56.8909C110.576 56.8909 109.74 57.2149 109.095 57.8037C107.956 58.8418 103.711 62.1746 96.0966 62.3294C91.9466 60.63 87.5472 59.7689 83.0101 59.7689C70.2338 59.7689 58.5413 66.7703 52.4958 78.0404C52.1097 78.7649 50.6526 82.0123 49.6171 85.4999C44.3108 87.297 41.2619 92.8874 40.832 96.5338C40.7319 97.3816 40.9991 98.2328 41.5657 98.8694C42.1342 99.509 42.9508 99.8755 43.8064 99.8755C43.8882 99.8755 43.9696 99.872 44.0509 99.8656C44.4942 101.39 45.2014 103.165 46.3207 104.758C45.3113 112.899 45.299 121.411 45.299 121.786C45.299 130.793 48.7867 138.426 55.3849 143.859C61.4358 148.842 69.8423 151.585 79.0559 151.585C98.9231 151.585 112.799 139.49 112.799 122.172C112.799 113.709 116.157 102.972 116.644 101.46C117.139 100.179 123.554 84.3168 137.134 84.3168C138.828 84.3168 140.205 83.0356 140.335 81.3362C140.551 78.5158 137.354 74.9819 131.666 73.1572ZM100.227 140.981C94.8505 145.333 87.3312 147.729 79.0549 147.729C58.4032 147.729 49.1595 134.7 49.1595 121.787C49.1595 121.701 49.1718 113.72 50.0569 106.035C51.2912 106.893 52.7892 107.434 54.6083 107.434C57.0107 107.434 59.0078 106.372 60.3845 104.364C61.5458 102.67 62.1853 100.365 62.1853 97.8752C62.1853 92.4761 59.0669 86.7456 53.2907 86.6815C54.2237 83.5016 55.5679 80.4816 55.8968 79.8631C61.2696 69.8476 71.6598 63.6254 83.0131 63.6254C87.2261 63.6254 91.3041 64.4603 95.1336 66.106C100.583 68.4465 105.222 72.2991 108.55 77.2459C111.955 82.3166 113.755 88.2379 113.755 94.3708C113.755 97.6464 112.845 100.993 111.791 104.867C110.458 109.766 108.948 115.319 108.948 122.172C108.948 129.86 105.933 136.364 100.227 140.981ZM57.4284 97.857C51.7621 92.8988 46.6166 94.6061 45.8103 94.9197C45.6802 94.9513 45.4578 95.0115 45.1708 95.118C46.193 92.4865 48.7394 88.7799 53.1951 88.7799C57.7163 88.7799 60.0818 93.3559 60.0818 97.8762C60.0818 99.946 59.5729 101.828 58.6493 103.176C57.669 104.606 56.3095 105.332 54.6083 105.332C51.91 105.332 49.8508 103.798 48.4879 100.771C47.7798 99.1993 47.4415 97.6055 47.2892 96.6699C48.7517 96.3361 52.1926 96.0703 56.0437 99.4405C56.2434 99.6151 56.49 99.7009 56.736 99.7009C57.0289 99.7009 57.3199 99.5796 57.528 99.3419C57.9096 98.9039 57.8657 98.2392 57.4284 97.857ZM110.984 59.8769C111.116 59.7561 111.282 59.6964 111.448 59.6964C111.613 59.6964 111.777 59.7546 111.911 59.87C113.082 60.8825 115.881 63.6501 115.65 66.7698C114.479 67.692 113.156 68.3035 111.697 68.3035C111.117 68.3035 110.646 68.7745 110.646 69.3554C110.646 69.9364 111.117 70.4073 111.697 70.4073C117.765 70.4073 121.625 62.9252 122.934 59.909C125.143 61.7214 126.766 65.5838 127.299 68.8682C127.657 71.078 127.529 72.9806 126.983 73.9418C125.782 73.7761 124.47 73.674 123.002 73.674C122.421 73.674 121.951 74.145 121.951 74.7259C121.951 75.3069 122.421 75.7778 123.002 75.7778C131.131 75.7778 134.32 78.7831 135.482 80.5166C124.943 81.2716 118.747 89.1966 115.854 94.2066C115.822 87.7137 113.903 81.4467 110.294 76.0732C107.121 71.3567 102.826 67.5801 97.8013 65.0438C105.326 64.4554 109.674 61.0714 110.984 59.8769Z" fill="#3A4042"/>
<path d="M73.1342 104.916C76.0138 104.916 78.3483 102.581 78.3483 99.7015C78.3483 96.8215 76.0138 94.4868 73.1342 94.4868C70.2545 94.4868 67.9201 96.8215 67.9201 99.7015C67.9201 102.581 70.2545 104.916 73.1342 104.916Z" fill="#3A4042"/>
<path d="M93.0625 137.093C89.1379 137.093 85.2557 136.45 84.5214 136.322H84.5209C80.1999 135.566 77.2965 131.94 77.2965 127.3C77.2965 122.2 81.445 118.051 86.5441 118.051C88.8958 118.051 91.3539 119.011 92.8071 120.496C96.2322 123.818 101.705 130.316 101.729 133.524C101.735 134.339 101.411 134.837 101.137 135.11C99.5951 136.651 96.314 137.093 93.0625 137.093ZM84.8829 134.25C90.8001 135.282 97.9417 135.33 99.6494 133.622C100.001 132.617 96.6168 127.122 91.3233 121.986C90.2597 120.899 88.3021 120.154 86.5441 120.154C82.6047 120.154 79.4001 123.36 79.4001 127.3C79.4001 130.883 81.6032 133.675 84.8829 134.25Z" fill="#3A4042"/>
<path d="M20.6576 64.9867C22.1487 66.3675 22.6946 68.569 22.1384 70.8395C21.1689 74.8035 17.8893 76.713 13.8932 75.7355C9.89608 74.7571 7.86795 71.5491 8.83887 67.5851C9.3941 65.3146 10.8867 63.6453 12.8552 63.0757L11.3779 58.0381C7.7358 59.2148 4.84571 62.3029 3.85162 66.3636C2.19972 73.11 6.0553 79.2404 12.6417 80.8506C19.2281 82.4627 25.4762 78.8074 27.1271 72.061C28.1286 67.9673 26.991 63.8924 24.2942 61.1987L20.6576 64.9867Z" fill="#3A4042"/>
</svg>
